<svg data-v-0dd9719b="" version="1.0" xmlns="http://www.w3.org/2000/svg" xmlns:xlink="http://www.w3.org/1999/xlink" width="100%" height="100%" viewBox="0 0 340.000000 250.000000" preserveAspectRatio="xMidYMid meet" color-interpolation-filters="sRGB" style="margin: auto;"> <rect data-v-0dd9719b="" x="0" y="0" width="100%" height="100%" fill="#fff" fill-opacity="1" class="background"></rect> <rect data-v-0dd9719b="" x="0" y="0" width="100%" height="100%" fill="url(#watermark)" fill-opacity="1" class="watermarklayer"></rect> <g data-v-0dd9719b="" fill="#333" class="icon-text-wrapper icon-svg-group iconsvg" transform="translate(48.959999084472656,90.18024826049805)"><g class="iconsvg-imagesvg" transform="translate(0,0)"><g><rect fill="#333" fill-opacity="0" stroke-width="2" x="0" y="0" width="59.99999999999999" height="69.63949952413007" class="image-rect"></rect> <svg x="0" y="0" width="59.99999999999999" height="69.63949952413007" filtersec="colorsb5932558134" class="image-svg-svg primary" style="overflow: visible;"><svg xmlns="http://www.w3.org/2000/svg" viewBox="-0.012591682374477386 -0.0008466243743896484 89.4620361328125 103.83445739746094"><title>资源 136</title><path d="M11.86 50a28.07 28.07 0 0 0 1.49 10.28c1 3 1.24 3 3.42.87L74.21 3.78c.71-.7 1.39-1.44 2.16-2.07 2.92-2.39 6.11-2.26 8.48.29 2.22 2.4 2 5.59-.6 8.23Q67.68 26.89 51 43.47L15.33 79.15C13.05 81.44 13 81.37 11 79A43.71 43.71 0 0 1 .05 51.69 42.67 42.67 0 0 1 9.93 22c8.73-10.69 20.22-16.08 33.9-16.51A39.24 39.24 0 0 1 60.65 8.7c1.43.62 1.82 1.31.57 2.53l-6 6c-1.24 1.3-2.63 1.06-4.16.77-11.52-2.11-21.71.57-30 9-6.14 6.26-9.52 13.8-9.2 23z" fill="#f8981c"></path><path d="M89.42 50.54c.69 21.5-16.07 41.34-38.64 44.1a42.62 42.62 0 0 1-16.13-.88c-.86-.23-2-.21-2.32-1.2-.33-1.15 1-1.56 1.53-2.35 3.89-5.83 9.6-6.83 16.21-7.51 18.19-1.86 30.81-20 27.21-38-.14-.71-.09-1.68-.94-1.87s-1.4.76-2 1.32Q46.79 71.7 19.21 99.27c-.88.88-1.74 1.79-2.65 2.65-2.63 2.49-5.8 2.55-8.23.18a5.57 5.57 0 0 1-.11-8.26c4.76-4.9 9.69-9.63 14.53-14.45 3.95-3.93 7.87-7.88 11.81-11.82l15.87-15.91 13.39-13.41c4.59-4.6 9.19-9.17 13.73-13.81 1.64-1.67 2.66-.92 3.77.6 4.38 5.96 8.52 15.79 8.1 25.5z" fill="#00a0da"></path></svg></svg> <!----></g></g> <g transform="translate(67.00000381469727,17.149751663208008)"><g data-gra="path-name" fill-rule="" class="tp-name iconsvg-namesvg"><g transform="scale(1)"><g><path d="M6.89 0.3Q5.46 0.3 4.6-0.59 3.74-1.48 3.74-2.9L3.74-2.9 3.74-31.7Q3.74-33.13 4.55-33.91 5.37-34.7 6.79-34.7L6.79-34.7 24.07-34.7Q27.07-34.7 27.07-32.14L27.07-32.14Q27.07-29.63 24.07-29.63L24.07-29.63 9.99-29.63 9.99-20.18 23.08-20.18Q26.09-20.18 26.09-17.62L26.09-17.62Q26.09-15.11 23.08-15.11L23.08-15.11 9.99-15.11 9.99-2.9Q9.99-1.48 9.16-0.59 8.32 0.3 6.89 0.3L6.89 0.3ZM40.75-24.66Q45.78-24.66 48.21-22.17 50.65-19.69 50.65-14.62L50.65-14.62 50.65-2.61Q50.65-1.28 49.86-0.52 49.07 0.25 47.69 0.25L47.69 0.25Q46.42 0.25 45.6-0.54 44.79-1.33 44.79-2.61L44.79-2.61 44.79-3.69Q43.95-1.77 42.16-0.69 40.36 0.39 38 0.39L38 0.39Q35.59 0.39 33.62-0.59 31.65-1.58 30.52-3.3 29.38-5.02 29.38-7.14L29.38-7.14Q29.38-9.79 30.74-11.32 32.09-12.85 35.14-13.54 38.2-14.22 43.56-14.22L43.56-14.22 44.79-14.22 44.79-15.36Q44.79-17.77 43.76-18.88 42.72-19.98 40.41-19.98L40.41-19.98Q38.98-19.98 37.51-19.57 36.03-19.15 34.01-18.36L34.01-18.36Q32.73-17.72 32.14-17.72L32.14-17.72Q31.26-17.72 30.69-18.36 30.12-19 30.12-20.03L30.12-20.03Q30.12-20.87 30.54-21.48 30.96-22.1 31.94-22.64L31.94-22.64Q33.67-23.58 36.05-24.12 38.44-24.66 40.75-24.66L40.75-24.66ZM39.23-4.04Q41.69-4.04 43.24-5.68 44.79-7.33 44.79-9.94L44.79-9.94 44.79-10.98 43.9-10.98Q40.61-10.98 38.79-10.68 36.96-10.39 36.18-9.65 35.39-8.91 35.39-7.63L35.39-7.63Q35.39-6.05 36.5-5.05 37.6-4.04 39.23-4.04L39.23-4.04ZM59.95 0.3Q58.62 0.3 57.76-0.47 56.9-1.23 56.9-2.66L56.9-2.66 56.9-32.04Q56.9-33.47 57.76-34.21 58.62-34.95 59.95-34.95L59.95-34.95Q61.28-34.95 62.17-34.21 63.05-33.47 63.05-32.04L63.05-32.04 63.05-2.66Q63.05-1.23 62.17-0.47 61.28 0.3 59.95 0.3L59.95 0.3ZM80.08 0.39Q76.49 0.39 73.76-1.13 71.03-2.66 69.55-5.46 68.07-8.27 68.07-12.01L68.07-12.01Q68.07-15.75 69.62-18.63 71.17-21.51 73.98-23.08 76.78-24.66 80.43-24.66L80.43-24.66Q82.35-24.66 84.29-24.12 86.23-23.58 87.71-22.64L87.71-22.64Q89.29-21.61 89.29-20.03L89.29-20.03Q89.29-18.95 88.77-18.29 88.25-17.62 87.42-17.62L87.42-17.62Q86.87-17.62 86.28-17.87 85.69-18.11 85.1-18.46L85.1-18.46Q84.02-19.1 83.04-19.47 82.05-19.84 80.77-19.84L80.77-19.84Q77.72-19.84 76.07-17.84 74.42-15.85 74.42-12.11L74.42-12.11Q74.42-8.42 76.07-6.42 77.72-4.43 80.77-4.43L80.77-4.43Q82-4.43 82.96-4.8 83.92-5.17 85.1-5.81L85.1-5.81Q85.84-6.25 86.38-6.47 86.92-6.69 87.47-6.69L87.47-6.69Q88.25-6.69 88.79-6 89.34-5.32 89.34-4.28L89.34-4.28Q89.34-3.45 88.97-2.83 88.6-2.21 87.76-1.72L87.76-1.72Q86.23-0.74 84.22-0.17 82.2 0.39 80.08 0.39L80.08 0.39ZM104.4 0.39Q100.71 0.39 97.92-1.13 95.14-2.66 93.62-5.51 92.09-8.37 92.09-12.16L92.09-12.16Q92.09-15.95 93.62-18.78 95.14-21.61 97.92-23.13 100.71-24.66 104.4-24.66L104.4-24.66Q108.09-24.66 110.87-23.13 113.65-21.61 115.15-18.78 116.65-15.95 116.65-12.16L116.65-12.16Q116.65-8.37 115.15-5.51 113.65-2.66 110.87-1.13 108.09 0.39 104.4 0.39L104.4 0.39ZM104.35-4.38Q107.35-4.38 108.93-6.35 110.5-8.32 110.5-12.16L110.5-12.16Q110.5-15.95 108.93-17.94 107.35-19.93 104.4-19.93L104.4-19.93Q101.44-19.93 99.84-17.94 98.24-15.95 98.24-12.16L98.24-12.16Q98.24-8.32 99.82-6.35 101.39-4.38 104.35-4.38L104.35-4.38ZM135.7-24.66Q140.03-24.66 142.15-22.2 144.27-19.74 144.27-14.77L144.27-14.77 144.27-2.66Q144.27-1.28 143.45-0.49 142.64 0.3 141.21 0.3L141.21 0.3Q139.79 0.3 138.95-0.49 138.11-1.28 138.11-2.66L138.11-2.66 138.11-14.42Q138.11-17.23 137.05-18.51 136-19.79 133.73-19.79L133.73-19.79Q131.07-19.79 129.47-18.11 127.88-16.44 127.88-13.63L127.88-13.63 127.88-2.66Q127.88-1.28 127.04-0.49 126.2 0.3 124.77 0.3L124.77 0.3Q123.35 0.3 122.53-0.49 121.72-1.28 121.72-2.66L121.72-2.66 121.72-21.71Q121.72-22.99 122.56-23.77 123.4-24.56 124.82-24.56L124.82-24.56Q126.1-24.56 126.92-23.8 127.73-23.04 127.73-21.8L127.73-21.8 127.73-20.48Q128.96-22.49 131.03-23.58 133.09-24.66 135.7-24.66L135.7-24.66ZM178.03-4.53Q178.82-3.59 178.82-2.66L178.82-2.66Q178.82-1.48 177.91-0.59 177 0.3 175.82 0.3L175.82 0.3Q174.59 0.3 173.65-0.79L173.65-0.79 163.66-13.19 153.62-0.79Q152.73 0.25 151.5 0.25L151.5 0.25Q150.32 0.25 149.41-0.62 148.5-1.48 148.5-2.66L148.5-2.66Q148.5-3.64 149.24-4.53L149.24-4.53 159.97-17.62 149.68-30.17Q148.94-30.96 148.94-32.04L148.94-32.04Q148.94-33.22 149.83-34.09 150.71-34.95 151.89-34.95L151.89-34.95Q153.13-34.95 154.06-33.86L154.06-33.86 163.66-22 173.26-33.86Q174.14-34.95 175.37-34.95L175.37-34.95Q176.55-34.95 177.47-34.09 178.38-33.22 178.38-32.04L178.38-32.04Q178.38-30.96 177.64-30.17L177.64-30.17 167.35-17.62 178.03-4.53Z" transform="translate(-3.740000009536743, 34.95000076293945)"></path></g> <!----> <!----> <!----> <!----> <!----> <!----> <!----></g></g> <!----></g></g><defs v-gra="od"></defs></svg>